<?xml version="1.0" encoding="UTF-8" standalone="no"?>
<!-- Created with Inkscape (http://www.inkscape.org/) -->

<svg
   xmlns:dc="http://purl.org/dc/elements/1.1/"
   xmlns:cc="http://creativecommons.org/ns#"
   xmlns:rdf="http://www.w3.org/1999/02/22-rdf-syntax-ns#"
   xmlns:svg="http://www.w3.org/2000/svg"
   xmlns="http://www.w3.org/2000/svg"
   version="1.1"
   width="200"
   height="80"
   id="svg2">
  <defs
     id="defs4" />
  <metadata
     id="metadata7">
    <rdf:RDF>
      <cc:Work
         rdf:about="">
        <dc:format>image/svg+xml</dc:format>
        <dc:type
           rdf:resource="http://purl.org/dc/dcmitype/StillImage" />
        <dc:title></dc:title>
      </cc:Work>
    </rdf:RDF>
  </metadata>
  <g
     transform="matrix(0.7794404,0,0,0.7794404,-11.250966,1.5729663)"
     id="text3001"
     style="font-size:40px;font-style:normal;font-variant:normal;font-weight:normal;font-stretch:normal;text-align:start;line-height:125%;letter-spacing:0px;word-spacing:0px;writing-mode:lr-tb;text-anchor:start;fill:#000000;fill-opacity:1;stroke:none;font-family:Lobster Two;-inkscape-font-specification:Lobster Two">
    <g
       id="text3004"
       style="font-size:51.31886673px;line-height:125%;font-family:Lobster Two;-inkscape-font-specification:Lobster Two">
      <path
         d="m 45.093443,13.618475 c 0,-3.6610659 0.457636,-6.3153452 3.340727,-6.3153452 2.196639,0 2.974619,1.5101937 3.340726,3.9356502 l 1.784771,0 c 0,-4.6220962 -2.745806,-6.8645062 -6.361109,-6.8645062 -3.889883,0 -6.681452,2.7000444 -6.681452,7.9628272 l 0,27.00039 c -2.88309,1.235609 -5.949239,3.294966 -5.949239,6.361108 0,2.837327 1.510194,4.439048 4.805154,4.439048 3.02038,0 5.720422,-1.327145 5.720422,-7.779774 l 0,-24.941038 3.706834,0 0,-1.601718 -3.706834,0 0,-2.196642 m -6.635689,34.139476 c -1.23561,0 -2.105115,-1.006795 -2.105115,-2.196641 0,-1.51019 1.418667,-3.203438 4.164467,-4.530575 l 0,1.418665 c 0,3.249196 -0.320345,5.308551 -2.059352,5.308551"
         id="path3814"
         style="fill:#3780f0;fill-opacity:1" />
      <path
         d="m 51.42166,15.815117 0,22.881686 4.576337,0 0,-16.840921 c 1.052557,-1.09832 2.379697,-2.288169 3.752597,-2.288169 1.327136,0 1.510192,1.144084 2.562749,1.144084 0.732213,0 2.105115,-0.549162 2.105115,-2.379695 0,-1.51019 -0.961033,-2.745803 -3.020382,-2.745803 -2.60851,0 -3.981415,1.922064 -5.400079,4.07294 l 0,-3.844122 -4.576337,0"
         id="path3816"
         style="fill:#3780f0;fill-opacity:1" />
      <path
         d="m 81.119228,21.535538 c 0,-4.850913 -3.066149,-5.949239 -6.086529,-5.949239 -6.589919,0 -8.740805,7.688253 -8.740805,12.813745 0,7.825529 4.072945,10.57134 8.283171,10.57134 4.66786,0 9.015387,-3.981418 10.571339,-8.466224 l -1.464427,0 c -1.601717,3.569539 -4.347524,4.988207 -7.230613,4.988207 -2.60851,0 -4.805155,-1.098326 -5.262788,-5.949238 6.178049,-0.686451 9.930652,-3.752601 9.930652,-8.008591 m -9.976416,6.223819 c 0,-4.484806 1.555958,-9.930652 4.759391,-9.930652 1.464426,0 2.288169,0.961033 2.288169,3.249199 0,3.43225 -2.745807,5.995003 -7.04756,6.681453"
         id="path3818"
         style="fill:#3780f0;fill-opacity:1" />
      <path
         d="m 97.922967,21.535538 c 0,-4.850913 -3.066148,-5.949239 -6.086528,-5.949239 -6.58992,0 -8.740805,7.688253 -8.740805,12.813745 0,7.734003 4.622105,10.57134 8.740805,10.57134 3.386486,0 6.452635,-1.830538 6.452635,-4.576338 0,-0.320343 -0.04576,-0.732214 -0.09153,-1.144084 -1.144083,1.64748 -2.97462,2.242405 -4.942444,2.242405 -2.60851,0 -4.805155,-1.098326 -5.262788,-5.949238 6.178049,-0.686451 9.930652,-3.752601 9.930652,-8.008591 m -9.976415,6.223819 c 0,-4.484806 1.555958,-9.930652 4.75939,-9.930652 1.464427,0 2.28817,0.961033 2.28817,3.249199 0,3.43225 -2.745807,5.995003 -7.04756,6.681453"
         id="path3820"
         style="fill:#3780f0;fill-opacity:1" />
      <path
         d="m 101.47535,15.815117 0,22.881686 4.57634,0 0,-16.840921 c 1.05255,-1.09832 2.37969,-2.288169 3.75259,-2.288169 1.32713,0 1.51019,1.144084 2.56274,1.144084 0.73221,0 2.10512,-0.549162 2.10512,-2.379695 0,-1.51019 -0.96104,-2.745803 -3.02038,-2.745803 -2.60851,0 -3.98141,1.922064 -5.40007,4.07294 l 0,-3.844122 -4.57634,0"
         id="path3822"
         style="fill:#df4c37;fill-opacity:1" />
      <path
         d="m 129.15932,15.815117 0,2.196641 c -0.86951,-1.876296 -2.79157,-2.425459 -4.256,-2.425459 -6.22381,0 -8.69504,7.276382 -8.69504,12.905272 0,7.688239 4.11871,10.479813 7.82554,10.479813 2.88309,0 5.03397,-1.967828 5.94924,-4.347521 0.45763,2.288166 1.64748,4.347521 4.43905,4.347521 2.01358,0 4.9882,-0.823749 6.3611,-8.466224 l -1.69324,0 c -0.68645,3.294959 -1.83054,4.988207 -3.29497,4.988207 -1.96782,0 -2.05935,-2.928857 -2.05935,-4.118704 l 0,-15.559546 -4.57633,0 m -3.98141,19.67825 c -2.65428,0 -4.16447,-2.105121 -4.16447,-7.322139 0,-4.25599 1.5102,-10.067943 5.44583,-10.067943 1.37291,0 2.28818,1.006795 2.70005,1.967825 l 0,10.43405 c 0,2.791562 -2.10512,4.988207 -3.98141,4.988207"
         id="path3824"
         style="fill:#df4c37;fill-opacity:1" />
      <path
         d="m 139.01561,15.815117 0,22.881686 4.57633,0 0,-14.644279 c 0.8695,-3.56954 2.24241,-4.988208 4.1187,-4.988208 1.55596,0 2.92886,1.006798 2.92886,4.942445 0,1.235609 -0.13729,6.818743 -0.13729,7.962826 0,3.70683 1.5102,7.001797 5.35431,7.001797 1.92206,0 4.89669,-0.823749 6.26958,-8.466224 l -1.69324,0 c -0.73222,3.478013 -1.8763,4.988207 -3.29496,4.988207 -2.01359,0 -2.05935,-2.97462 -2.05935,-3.93565 0,-2.379693 0.27458,-5.628897 0.27458,-7.779774 0,-3.523775 -0.73223,-8.191644 -6.26958,-8.191644 -1.55596,0 -3.70684,0.366111 -5.49161,3.706833 l 0,-3.478015 -4.57633,0"
         id="path3826"
         style="fill:#df4c37;fill-opacity:1" />
      <path
         d="m 172.68815,15.815117 0,2.196641 c -0.8695,-1.876296 -2.79156,-2.425459 -4.25599,-2.425459 -6.22381,0 -8.69504,7.001802 -8.69504,12.447638 0,7.367896 4.1187,10.022179 7.82554,10.022179 2.19663,0 3.98141,-1.144086 5.12549,-2.745802 l 0,3.93565 c -2.97461,1.235609 -5.995,3.249202 -5.995,6.406873 0,2.471219 1.83054,4.48481 4.85092,4.48481 3.06614,0 5.72042,-2.105121 5.72042,-7.825537 l 0,-2.928856 c 4.07293,-1.23561 6.08653,-2.379702 7.04756,-8.878094 l -1.69324,0 c -0.64069,5.125492 -2.24241,6.223819 -5.35432,7.230613 l 0,-21.920656 -4.57634,0 M 168.70674,34.5781 c -2.65427,0 -4.16447,-1.96783 -4.16447,-6.864506 0,-4.072937 1.5102,-9.610309 5.44585,-9.610309 1.37289,0 2.28816,1.006795 2.70003,1.967825 l 0,9.747599 c 0,2.700036 -2.15088,4.759391 -3.98141,4.759391 m 1.96782,13.179851 c -1.37289,0 -2.19663,-0.915268 -2.19663,-2.288168 0,-1.693243 1.18984,-3.020385 4.21022,-4.393284 l 0,3.203436 c 0,2.150876 -0.3661,3.478016 -2.01359,3.478016"
         id="path3828"
         style="fill:#df4c37;fill-opacity:1" />
      <path
         d="m 196.86838,21.535538 c 0,-4.850913 -3.06615,-5.949239 -6.08653,-5.949239 -6.58992,0 -8.74081,7.688253 -8.74081,12.813745 0,7.734003 4.6221,10.57134 8.74081,10.57134 3.38648,0 6.45263,-1.830538 6.45263,-4.576338 0,-0.320343 -0.0457,-0.732214 -0.0915,-1.144084 -1.14409,1.64748 -2.97463,2.242405 -4.94245,2.242405 -2.60851,0 -4.80515,-1.098326 -5.26279,-5.949238 6.17805,-0.686451 9.93066,-3.752601 9.93066,-8.008591 m -9.97642,6.223819 c 0,-4.484806 1.55596,-9.930652 4.75938,-9.930652 1.46444,0 2.28818,0.961033 2.28818,3.249199 0,3.43225 -2.74581,5.995003 -7.04756,6.681453"
         id="path3830"
         style="fill:#df4c37;fill-opacity:1" />
    </g>
    <g
       transform="matrix(0.89174561,0,0,0.89174561,15.182967,5.049872)"
       id="text3008"
       style="font-size:51.31887054px;line-height:125%;fill-opacity:0.43137255;font-family:Lobster Two;-inkscape-font-specification:Lobster Two">
      <path
         d="m 73.246095,58.09163 c 0,-4.105506 0.513192,-7.082004 3.746278,-7.082004 2.463303,0 3.335727,1.693525 3.746277,4.413422 l 2.001436,0 c 0,-5.1832 -3.079136,-7.69783 -7.133323,-7.69783 -4.362099,0 -7.492555,3.027819 -7.492555,8.929483 l 0,30.278134 c -3.233086,1.385608 -6.671453,3.694962 -6.671453,7.133323 0,3.181767 1.693526,4.97793 5.388481,4.97793 3.387042,0 6.414859,-1.488254 6.414859,-8.724208 l 0,-27.968784 4.156829,0 0,-1.796161 -4.156829,0 0,-2.463305 m -7.441236,38.283877 c -1.385608,0 -2.360668,-1.129016 -2.360668,-2.463306 0,-1.693521 1.590888,-3.592322 4.670017,-5.080568 l 0,1.590885 c 0,3.643636 -0.359234,5.952989 -2.309349,5.952989"
         id="path3791"
         style="font-weight:normal;fill:#ffba0f;fill-opacity:1;-inkscape-font-specification:Lobster Two" />
      <path
         d="m 94.147309,60.554935 0,2.463306 c -0.975057,-2.104071 -3.130453,-2.7199 -4.772655,-2.7199 -6.979359,0 -9.750585,8.159707 -9.750585,14.471922 0,8.621561 4.618702,11.752021 8.775527,11.752021 3.233085,0 5.645076,-2.206714 6.671453,-4.875293 0.513188,2.565941 1.847482,4.875293 4.977931,4.875293 2.25803,0 5.59376,-0.923748 7.13332,-9.493991 l -1.8988,0 c -0.76978,3.694955 -2.05275,5.593757 -3.69495,5.593757 -2.206714,0 -2.309354,-3.284409 -2.309354,-4.618699 l 0,-17.448416 -5.131887,0 M 89.682567,82.62205 c -2.976491,0 -4.670017,-2.360674 -4.670017,-8.211019 0,-4.772651 1.693527,-11.290152 6.106946,-11.290152 1.539564,0 2.565944,1.129016 3.027813,2.206711 l 0,11.700703 c 0,3.130448 -2.36067,5.593757 -4.464742,5.593757"
         id="path3793"
         style="font-weight:normal;fill:#ffba0f;fill-opacity:1;-inkscape-font-specification:Lobster Two" />
      <path
         d="m 116.84949,68.406723 c 0.46187,0.667144 1.0777,1.077696 1.8988,1.077696 1.33429,0 2.00144,-1.334292 2.00144,-3.027813 0,-4.002868 -2.30935,-6.158265 -6.62014,-6.158265 -7.74914,0 -9.49399,8.570257 -9.49399,14.266646 0,8.878156 5.08058,11.957297 9.80191,11.957297 5.02924,0 9.59663,-4.464747 11.23883,-9.493991 l -1.74484,0 c -1.74484,3.797593 -4.20815,5.593757 -7.80047,5.593757 -3.33572,0 -6.05563,-1.539574 -6.05563,-8.724208 0,-4.875288 1.12902,-10.879601 4.82398,-10.879601 1.79616,0 2.82254,1.129017 2.82254,2.7199 0,0.975058 -0.30792,2.206712 -0.87243,2.668582"
         id="path3795"
         style="font-weight:normal;fill:#ffba0f;fill-opacity:1;-inkscape-font-specification:Lobster Two" />
      <path
         d="m 123.89461,53.472931 0,7.082004 -1.74484,0 0,1.796161 1.74484,0 0,16.729952 c 0,3.387042 1.12902,7.441236 6.05563,7.441236 2.36067,0 5.74772,-0.923748 8.00575,-9.493991 l -1.8988,0 c -0.97506,3.746274 -2.77122,5.593757 -4.6187,5.593757 -2.30935,0 -2.41199,-3.027815 -2.41199,-4.618699 l 0,-15.652255 3.95155,0 0,-1.796161 -3.95155,0 0,-7.800468 -5.13189,0.718464"
         id="path3797"
         style="font-weight:normal;fill:#ffba0f;fill-opacity:1;-inkscape-font-specification:Lobster Two" />
      <path
         d="m 145.36274,60.298341 c -7.69782,0 -10.00718,8.262344 -10.00718,14.266646 0,8.826837 5.02925,11.957297 9.59663,11.957297 5.54243,0 8.77553,-5.080577 8.77553,-13.496863 0,-0.718463 -0.0513,-1.436929 -0.0513,-2.104074 3.13044,-0.513188 6.51749,-2.001438 7.85178,-4.208147 l -0.76978,-1.38561 c -1.69352,1.74484 -4.20815,3.079133 -7.03068,3.079133 l -0.30792,0 c -0.66714,-4.567375 -2.66858,-8.108382 -8.05706,-8.108382 m 0.51319,22.323709 c -2.30935,0 -4.97793,-1.590892 -4.97793,-8.262338 0,-5.029245 1.53957,-11.238833 5.79903,-11.238833 1.53956,0 2.87386,0.821104 3.69496,3.18177 -1.33429,0.05132 -2.05276,0.615828 -2.05276,2.206711 0,1.74484 0.82111,2.463306 2.77122,2.565944 0.0513,0.41055 0.0513,0.821102 0.0513,1.231653 0,6.51749 -1.69352,10.315093 -5.28584,10.315093"
         id="path3799"
         style="font-weight:normal;fill:#ffba0f;fill-opacity:1;-inkscape-font-specification:Lobster Two" />
      <path
         d="m 157.5213,60.554935 0,25.659436 5.13189,0 0,-18.885345 c 1.18033,-1.231651 2.66858,-2.565943 4.20815,-2.565943 1.48825,0 1.69352,1.282972 2.87386,1.282972 0.8211,0 2.36066,-0.615829 2.36066,-2.668582 0,-1.693521 -1.07769,-3.079132 -3.38704,-3.079132 -2.92517,0 -4.46474,2.155395 -6.05563,4.56738 l 0,-4.310786 -5.13189,0"
         id="path3801"
         style="font-weight:normal;fill:#ffba0f;fill-opacity:1;-inkscape-font-specification:Lobster Two" />
      <path
         d="m 186.97513,60.554935 0,16.473358 c 0,3.540998 -2.05276,5.593757 -4.00288,5.593757 -1.79616,0 -3.07913,-1.282975 -3.07913,-4.618699 l 0,-17.448416 -5.13189,0 0,18.012924 c 0,5.850345 3.2331,7.954425 7.23596,7.954425 1.79616,0 3.64365,-0.923742 4.97794,-2.925176 l 0,3.233089 c -3.33573,1.385608 -6.72278,3.643644 -6.72278,7.184642 0,2.771216 2.05276,5.029249 5.4398,5.029249 3.43836,0 6.41486,-2.360674 6.41486,-8.775526 l 0,-29.713627 -5.13188,0 m -2.25803,35.820572 c -1.53957,0 -2.46331,-1.026379 -2.46331,-2.565943 0,-1.898797 1.33429,-3.387047 4.72134,-4.926612 l 0,3.592321 c 0,2.411984 -0.41056,3.900234 -2.25803,3.900234"
         id="path3803"
         style="font-weight:normal;fill:#ffba0f;fill-opacity:1;-inkscape-font-specification:Lobster Two" />
      <path
         d="m 196.30153,83.08392 c 0,1.898796 1.48825,3.387045 3.38704,3.387045 1.84748,0 3.43837,-1.488249 3.43837,-3.387045 0,-1.847478 -1.59089,-3.438365 -3.43837,-3.438365 -1.89879,0 -3.38704,1.590887 -3.38704,3.438365"
         id="path3805"
         style="fill:#019d59;fill-opacity:1" />
      <path
         d="m 216.82828,60.298341 c -7.69782,0 -10.00717,8.262344 -10.00717,14.266646 0,8.826837 5.02925,11.957297 9.59662,11.957297 5.54244,0 8.77553,-5.080577 8.77553,-13.496863 0,-0.718463 -0.0513,-1.436929 -0.0513,-2.104074 3.13045,-0.513188 6.5175,-2.001438 7.85179,-4.208147 l -0.76978,-1.38561 c -1.69353,1.74484 -4.20815,3.079133 -7.03069,3.079133 l -0.30791,0 c -0.66715,-4.567375 -2.66859,-8.108382 -8.05707,-8.108382 m 0.51319,22.323709 c -2.30934,0 -4.97793,-1.590892 -4.97793,-8.262338 0,-5.029245 1.53957,-11.238833 5.79904,-11.238833 1.53956,0 2.87385,0.821104 3.69495,3.18177 -1.33429,0.05132 -2.05275,0.615828 -2.05275,2.206711 0,1.74484 0.8211,2.463306 2.77122,2.565944 0.0513,0.41055 0.0513,0.821102 0.0513,1.231653 0,6.51749 -1.69353,10.315093 -5.28585,10.315093"
         id="path3807"
         style="fill:#019d59;fill-opacity:1" />
      <path
         d="m 228.98684,60.554935 0,25.659436 5.13189,0 0,-18.885345 c 1.18033,-1.231651 2.66858,-2.565943 4.20815,-2.565943 1.48824,0 1.69352,1.282972 2.87385,1.282972 0.82111,0 2.36067,-0.615829 2.36067,-2.668582 0,-1.693521 -1.0777,-3.079132 -3.38704,-3.079132 -2.92518,0 -4.46475,2.155395 -6.05563,4.56738 l 0,-4.310786 -5.13189,0"
         id="path3809"
         style="fill:#019d59;fill-opacity:1" />
      <path
         d="m 260.03155,60.554935 0,2.463306 c -0.97506,-2.104071 -3.13045,-2.7199 -4.77266,-2.7199 -6.97936,0 -9.75058,7.851793 -9.75058,13.958733 0,8.26233 4.6187,11.238833 8.77552,11.238833 2.46331,0 4.46475,-1.282974 5.74772,-3.079133 l 0,4.413423 c -3.33572,1.385608 -6.72277,3.643644 -6.72277,7.184642 0,2.771216 2.05275,5.029249 5.4398,5.029249 3.43836,0 6.41486,-2.360674 6.41486,-8.775526 l 0,-29.713627 -5.13189,0 m -4.46474,21.040737 c -2.97649,0 -4.67002,-2.206717 -4.67002,-7.69783 0,-4.567375 1.69353,-10.776963 6.10694,-10.776963 1.53957,0 2.56595,1.129016 3.02782,2.206711 l 0,10.93092 c 0,3.02781 -2.41199,5.337162 -4.46474,5.337162 m 2.20671,14.779835 c -1.53957,0 -2.46331,-1.026379 -2.46331,-2.565943 0,-1.898797 1.3343,-3.387047 4.72134,-4.926612 l 0,3.592321 c 0,2.411984 -0.41055,3.900234 -2.25803,3.900234"
         id="path3811"
         style="fill:#019d59;fill-opacity:1" />
    </g>
  </g>
</svg>
