<?xml version="1.0" encoding="UTF-8" standalone="no"?>
<!-- Created with Inkscape (http://www.inkscape.org/) -->

<svg
   xmlns:dc="http://purl.org/dc/elements/1.1/"
   xmlns:cc="http://creativecommons.org/ns#"
   xmlns:rdf="http://www.w3.org/1999/02/22-rdf-syntax-ns#"
   xmlns:svg="http://www.w3.org/2000/svg"
   xmlns="http://www.w3.org/2000/svg"
   xmlns:sodipodi="http://sodipodi.sourceforge.net/DTD/sodipodi-0.dtd"
   xmlns:inkscape="http://www.inkscape.org/namespaces/inkscape"
   height="100%"
   width="100%"
   version="1.1"
   viewBox="0 0 200 75"
   id="svg2"
   inkscape:version="0.91 r13725"
   sodipodi:docname="logo-frf.svg">
  <defs
     id="defs54" />
  <sodipodi:namedview
     pagecolor="#ffffff"
     bordercolor="#666666"
     borderopacity="1"
     objecttolerance="10"
     gridtolerance="10"
     guidetolerance="10"
     inkscape:pageopacity="0"
     inkscape:pageshadow="2"
     inkscape:window-width="1440"
     inkscape:window-height="787"
     id="namedview52"
     showgrid="false"
     inkscape:zoom="1.54"
     inkscape:cx="14.935065"
     inkscape:cy="37.5"
     inkscape:window-x="-8"
     inkscape:window-y="-8"
     inkscape:window-maximized="1"
     inkscape:current-layer="svg2" />
  <metadata
     id="metadata4">
    <rdf:RDF>
      <cc:Work
         rdf:about="">
        <dc:format>image/svg+xml</dc:format>
        <dc:type
           rdf:resource="http://purl.org/dc/dcmitype/StillImage" />
        <dc:title></dc:title>
      </cc:Work>
    </rdf:RDF>
  </metadata>
  <g
     id="g4224">
    <path
       style="font-style:normal;font-variant:normal;font-weight:normal;font-stretch:normal;font-size:medium;line-height:125%;font-family:'Lobster Two';text-align:start;letter-spacing:0px;word-spacing:0px;writing-mode:lr-tb;text-anchor:start;fill:#3780f0"
       inkscape:connector-curvature="0"
       id="path10"
       d="m 10.698944,9.1873857 c 0,-2.8536093 0.416772,-4.9224 3.042365,-4.9224 2.000437,0 2.708959,1.1771109 3.042366,3.0676436 l 1.625411,0 c 0,-3.6026515 -2.500591,-5.3504686 -5.793034,-5.3504686 -3.5425196,0 -6.0848212,2.104489 -6.0848212,6.206528 l 0,21.0448903 c -2.6256303,0.963077 -5.4179181,2.568257 -5.4179181,4.958099 0,2.211506 1.3753345,3.459936 4.3760809,3.459936 2.7506689,0 5.2095504,-1.034396 5.2095504,-6.063891 l 0,-19.439243 3.375772,0 0,-1.24843 -3.376865,0 0,-1.7121187 M 4.6547398,35.797247 c -1.1252571,0 -1.9171081,-0.784741 -1.9171081,-1.712119 0,-1.177111 1.2920058,-2.496859 3.7925974,-3.531332 l 0,1.105792 c 0,2.532557 -0.2917327,4.137737 -1.8754893,4.137737" />
    <path
       style="font-style:normal;font-variant:normal;font-weight:normal;font-stretch:normal;font-size:medium;line-height:125%;font-family:'Lobster Two';text-align:start;letter-spacing:0px;word-spacing:0px;writing-mode:lr-tb;text-anchor:start;fill:#3780f0"
       inkscape:connector-curvature="0"
       id="path12"
       d="m 16.462745,10.899816 0,17.835155 4.167622,0 0,-13.126555 c 0.9586,-0.85606 2.167186,-1.783516 3.417482,-1.783516 1.208585,0 1.375334,0.891758 2.333843,0.891758 0.666821,0 1.917108,-0.428038 1.917108,-1.854834 0,-1.177111 -0.875207,-2.140188 -2.750669,-2.140188 -2.375553,0 -3.625849,1.498163 -4.917855,3.174583 l 0,-2.996247 -4.167622,0" />
    <path
       style="font-style:normal;font-variant:normal;font-weight:normal;font-stretch:normal;font-size:medium;line-height:125%;font-family:'Lobster Two';text-align:start;letter-spacing:0px;word-spacing:0px;writing-mode:lr-tb;text-anchor:start;fill:#3780f0"
       inkscape:connector-curvature="0"
       id="path14"
       d="m 43.507711,15.358995 c 0,-3.780988 -2.792287,-4.637047 -5.542956,-4.637047 -6.001402,0 -7.96022,5.992572 -7.96022,9.987749 0,6.099511 3.709177,8.239465 7.543485,8.239465 4.251042,0 8.210297,-3.103264 9.626977,-6.598899 l -1.333625,0 c -1.458663,2.782213 -3.959255,3.888005 -6.584885,3.888005 -2.375553,0 -4.376081,-0.856059 -4.792816,-4.637047 5.626286,-0.535047 9.043858,-2.924928 9.043858,-6.242226 m -9.085476,4.851081 c 0,-3.495634 1.417044,-7.740389 4.33437,-7.740389 1.333625,0 2.083857,0.749066 2.083857,2.532558 0,2.675195 -2.500591,4.672745 -6.418227,5.207831" />
    <path
       style="font-style:normal;font-variant:normal;font-weight:normal;font-stretch:normal;font-size:medium;line-height:125%;font-family:'Lobster Two';text-align:start;letter-spacing:0px;word-spacing:0px;writing-mode:lr-tb;text-anchor:start;fill:#3780f0"
       inkscape:connector-curvature="0"
       id="path16"
       d="m 58.811062,15.358995 c 0,-3.780988 -2.792287,-4.637047 -5.542956,-4.637047 -6.001402,0 -7.96022,5.992572 -7.96022,9.987749 0,6.028192 4.209332,8.239465 7.96022,8.239465 3.084075,0 5.876363,-1.426766 5.876363,-3.566953 0,-0.249686 -0.04167,-0.570714 -0.08336,-0.891758 -1.041929,1.284128 -2.70896,1.747817 -4.501029,1.747817 -2.375553,0 -4.376081,-0.856059 -4.792816,-4.637047 5.626286,-0.535047 9.043858,-2.924928 9.043858,-6.242226 m -9.085477,4.851081 c 0,-3.495634 1.417045,-7.740389 4.334371,-7.740389 1.333625,0 2.083857,0.749066 2.083857,2.532558 0,2.675195 -2.500591,4.672745 -6.418228,5.207831" />
    <path
       style="font-style:normal;font-variant:normal;font-weight:normal;font-stretch:normal;font-size:medium;line-height:125%;font-family:'Lobster Two';text-align:start;letter-spacing:0px;word-spacing:0px;writing-mode:lr-tb;text-anchor:start;fill:#df4c37"
       inkscape:connector-curvature="0"
       id="path18"
       d="m 62.050411,10.899816 0,17.835155 4.167623,0 0,-13.126555 c 0.958599,-0.85606 2.167185,-1.783516 3.417481,-1.783516 1.208586,0 1.375335,0.891758 2.333843,0.891758 0.666821,0 1.917108,-0.428038 1.917108,-1.854834 0,-1.177111 -0.875216,-2.140188 -2.750669,-2.140188 -2.375553,0 -3.625849,1.498163 -4.917854,3.174583 l 0,-2.996247 -4.167623,0" />
    <path
       style="font-style:normal;font-variant:normal;font-weight:normal;font-stretch:normal;font-size:medium;line-height:125%;font-family:'Lobster Two';text-align:start;letter-spacing:0px;word-spacing:0px;writing-mode:lr-tb;text-anchor:start;fill:#df4c37"
       inkscape:connector-curvature="0"
       id="path20"
       d="m 87.258502,10.899816 0,1.712119 c -0.79186,-1.462464 -2.542301,-1.890533 -3.875926,-1.890533 -5.667995,0 -7.91851,5.67152 -7.91851,10.058679 0,5.992493 3.750888,8.168535 7.126659,8.168535 2.62563,0 4.584448,-1.533783 5.417918,-3.388617 0.416762,1.783515 1.500373,3.388617 4.042584,3.388617 1.833779,0 4.542738,-0.642064 5.793034,-6.598898 l -1.541992,0 c -0.625148,2.568256 -1.667031,3.888004 -3.000746,3.888004 -1.79207,0 -1.87549,-2.282903 -1.87549,-3.210281 l 0,-12.128092 -4.167622,0 m -3.625849,15.337828 c -2.417262,0 -3.792597,-1.6408 -3.792597,-5.707141 0,-3.317298 1.375335,-7.847406 4.959473,-7.847406 1.250296,0 2.083857,0.784741 2.458882,1.533783 l 0,8.132681 c 0,2.175886 -1.917108,3.888005 -3.625849,3.888005" />
    <path
       style="font-style:normal;font-variant:normal;font-weight:normal;font-stretch:normal;font-size:medium;line-height:125%;font-family:'Lobster Two';text-align:start;letter-spacing:0px;word-spacing:0px;writing-mode:lr-tb;text-anchor:start;fill:#df4c37"
       inkscape:connector-curvature="0"
       id="path22"
       d="m 96.237974,10.899816 0,17.835155 4.167626,0 0,-11.414125 c 0.79185,-2.782212 2.04214,-3.888004 3.75088,-3.888004 1.41705,0 2.66734,0.78474 2.66734,3.852306 0,0.963076 -0.12503,5.31477 -0.12503,6.206528 0,2.88923 1.37534,5.457486 4.87615,5.457486 1.75045,0 4.45941,-0.642064 5.7097,-6.598899 l -1.54199,0 c -0.66683,2.710894 -1.70874,3.888005 -3.00074,3.888005 -1.83378,0 -1.87549,-2.318523 -1.87549,-3.067566 0,-1.854834 0.25006,-4.387392 0.25006,-6.06389 0,-2.746592 -0.66684,-6.384864 -5.70971,-6.384864 -1.41704,0 -3.37577,0.285361 -5.00118,2.88923 l 0,-2.710894 -4.167625,0" />
    <path
       style="font-style:normal;font-variant:normal;font-weight:normal;font-stretch:normal;font-size:medium;line-height:125%;font-family:'Lobster Two';text-align:start;letter-spacing:0px;word-spacing:0px;writing-mode:lr-tb;text-anchor:start;fill:#df4c37"
       inkscape:connector-curvature="0"
       id="path24"
       d="m 126.90114,10.899816 0,1.712119 c -0.79185,-1.462464 -2.5423,-1.890533 -3.87593,-1.890533 -5.66799,0 -7.91851,5.457486 -7.91851,9.702474 0,5.742839 3.75089,7.811552 7.12666,7.811552 2.00044,0 3.62585,-0.891758 4.66778,-2.140187 l 0,3.067565 c -2.70896,0.963077 -5.45963,2.532558 -5.45963,4.993797 0,1.926153 1.66703,3.495634 4.4177,3.495634 2.79229,0 5.20955,-1.6408 5.20955,-6.099511 l 0,-2.282903 c 3.70918,-0.963076 5.54296,-1.854834 6.41823,-6.919949 l -1.54199,0 c -0.58348,3.995021 -2.04215,4.851081 -4.87615,5.635821 l 0,-17.086113 -4.16762,0 m -3.63368,14.624641 c -2.41726,0 -3.7926,-1.533783 -3.7926,-5.350469 0,-3.174583 1.37534,-7.490656 4.95948,-7.490656 1.25029,0 2.08385,0.784741 2.45888,1.533783 l 0,7.597673 c 0,2.104489 -1.95882,3.709669 -3.62585,3.709669 m 1.79207,10.273024 c -1.2503,0 -2.00044,-0.713398 -2.00044,-1.783515 0,-1.319749 1.08355,-2.354222 3.83422,-3.424316 l 0,2.496859 c 0,1.676499 -0.33341,2.710894 -1.83378,2.710894" />
    <path
       style="font-style:normal;font-variant:normal;font-weight:normal;font-stretch:normal;font-size:medium;line-height:125%;font-family:'Lobster Two';text-align:start;letter-spacing:0px;word-spacing:0px;writing-mode:lr-tb;text-anchor:start;fill:#df4c37"
       inkscape:connector-curvature="0"
       id="path26"
       d="m 148.92179,15.358995 c 0,-3.780988 -2.79238,-4.637047 -5.54296,-4.637047 -6.0014,0 -7.96022,5.992572 -7.96022,9.987749 0,6.028192 4.20934,8.239465 7.96022,8.239465 3.08408,0 5.87637,-1.426766 5.87637,-3.566953 0,-0.249686 -0.0416,-0.570714 -0.0833,-0.891758 -1.04193,1.284128 -2.70896,1.747817 -4.50103,1.747817 -2.37555,0 -4.37608,-0.856059 -4.79282,-4.637047 5.62629,-0.535047 9.04386,-2.924928 9.04386,-6.242226 m -9.08548,4.851081 c 0,-3.495634 1.41705,-7.740389 4.33438,-7.740389 1.33362,0 2.08385,0.749066 2.08385,2.532558 0,2.675195 -2.50059,4.672745 -6.41823,5.207831" />
    <path
       style="font-style:normal;font-variant:normal;font-weight:normal;font-stretch:normal;font-size:medium;line-height:125%;font-family:'Lobster Two';text-align:start;letter-spacing:0px;word-spacing:0px;writing-mode:lr-tb;text-anchor:start;fill:#ffba0f;fill-opacity:1"
       inkscape:connector-curvature="0"
       id="path30"
       d="m 42.943951,42.886614 c 0,-2.853579 0.416765,-4.922433 3.042388,-4.922433 2.000493,0 2.708925,1.177089 3.042388,3.067589 l 1.625383,0 c 0,-3.602648 -2.500546,-5.350452 -5.793031,-5.350452 -3.542511,0 -6.084846,2.10451 -6.084846,6.206561 l 0,21.045104 c -2.625631,0.963078 -5.417992,2.568256 -5.417992,4.958089 0,2.21155 1.375286,3.459952 4.376027,3.459952 2.750643,0 5.209613,-1.034461 5.209613,-6.063864 l 0,-19.440205 3.37578,0 0,-1.247707 -3.374935,0 0,-1.712147 m -6.043058,26.609774 c -1.12526,0 -1.917128,-0.784725 -1.917128,-1.712147 0,-1.177089 1.291992,-2.496873 3.792538,-3.531335 l 0,1.105775 c 0,2.53253 -0.291737,4.137707 -1.87541,4.137707" />
    <path
       style="font-style:normal;font-variant:normal;font-weight:normal;font-stretch:normal;font-size:medium;line-height:125%;font-family:'Lobster Two';text-align:start;letter-spacing:0px;word-spacing:0px;writing-mode:lr-tb;text-anchor:start;fill:#ffba0f;fill-opacity:1"
       inkscape:connector-curvature="0"
       id="path32"
       d="m 59.915166,44.598553 0,1.712148 C 59.123299,44.84822 57.372831,44.4202 56.039193,44.4202 c -5.668019,0 -7.91868,5.671502 -7.91868,10.058945 0,5.992552 3.750891,8.168376 7.1266,8.168376 2.62563,0 4.584476,-1.533795 5.417992,-3.388639 0.416765,1.783461 1.50037,3.388639 4.042564,3.388639 1.833762,0 4.542758,-0.642064 5.793031,-6.598924 l -1.542017,0 c -0.625144,2.568256 -1.667102,3.888041 -3.000741,3.888041 -1.792044,0 -1.87548,-2.282864 -1.87548,-3.210286 l 0,-12.127451 -4.167648,0 m -3.618759,15.337945 c -2.417252,0 -3.792538,-1.640834 -3.792538,-5.707158 0,-3.317325 1.375286,-7.847257 4.959445,-7.847257 1.250344,0 2.083789,0.784726 2.458899,1.533795 l 0,8.132927 c 0,2.175824 -1.917128,3.888041 -3.625806,3.888041" />
    <path
       style="font-style:normal;font-variant:normal;font-weight:normal;font-stretch:normal;font-size:medium;line-height:125%;font-family:'Lobster Two';text-align:start;letter-spacing:0px;word-spacing:0px;writing-mode:lr-tb;text-anchor:start;fill:#ffba0f;fill-opacity:1"
       inkscape:connector-curvature="0"
       id="path34"
       d="m 78.357084,50.056184 c 0.375096,0.463704 0.875234,0.749069 1.542018,0.749069 1.083612,0 1.625383,-0.927422 1.625383,-2.10451 0,-2.782266 -1.87548,-4.280404 -5.376273,-4.280404 -6.293084,0 -7.710089,5.956895 -7.710089,9.916458 0,6.170904 4.126,8.310863 7.960256,8.310863 4.084283,0 7.793243,-3.103246 9.127235,-6.598924 l -1.416935,0 c -1.417004,2.639569 -3.417498,3.888041 -6.334872,3.888041 -2.708926,0 -4.917798,-1.070119 -4.917798,-6.063865 0,-3.388639 0.916881,-7.562281 3.917621,-7.562281 1.458723,0 2.292168,0.784726 2.292168,1.890501 0,0.677728 -0.250076,1.533795 -0.708502,1.854844" />
    <path
       style="font-style:normal;font-variant:normal;font-weight:normal;font-stretch:normal;font-size:medium;line-height:125%;font-family:'Lobster Two';text-align:start;letter-spacing:0px;word-spacing:0px;writing-mode:lr-tb;text-anchor:start;fill:#ffba0f;fill-opacity:1"
       inkscape:connector-curvature="0"
       id="path36"
       d="m 84.072176,39.67612 0,4.922433 -1.417004,0 0,1.248472 1.417004,0 0,11.628396 c 0,2.354177 0.916881,5.1721 4.917798,5.1721 1.917128,0 4.667771,-0.642064 6.501604,-6.598924 l -1.542018,0 c -0.791868,2.603913 -2.25052,3.888041 -3.75089,3.888041 -1.87548,0 -1.958775,-2.104511 -1.958775,-3.210286 l 0,-10.879119 3.209119,0 0,-1.248471 -3.209119,0 0,-5.421836 -4.167648,0.499375" />
    <path
       style="font-style:normal;font-variant:normal;font-weight:normal;font-stretch:normal;font-size:medium;line-height:125%;font-family:'Lobster Two';text-align:start;letter-spacing:0px;word-spacing:0px;writing-mode:lr-tb;text-anchor:start;fill:#ffba0f;fill-opacity:1"
       inkscape:connector-curvature="0"
       id="path38"
       d="m 101.50638,44.419922 c -6.251439,0 -8.126567,5.742816 -8.126567,9.916458 0,6.135178 4.084282,8.310863 7.793247,8.310863 4.50104,0 7.1266,-3.531335 7.1266,-9.38126 0,-0.499374 -0.0417,-0.998735 -0.0417,-1.462481 2.54226,-0.356699 5.29291,-1.391098 6.37652,-2.924893 l -0.62515,-0.963078 c -1.37529,1.212745 -3.4175,2.140167 -5.70974,2.140167 l -0.25006,0 c -0.54179,-3.174629 -2.16723,-5.635845 -6.54325,-5.635845 m 0.41676,15.516576 c -1.87548,0 -4.042632,-1.105775 -4.042632,-5.742815 0,-3.495609 1.250344,-7.811808 4.709422,-7.811808 1.25034,0 2.33395,0.570716 3.00074,2.21155 -1.08361,0.03567 -1.6671,0.42804 -1.6671,1.533794 0,1.212745 0.66683,1.712148 2.25052,1.783461 0.0416,0.285358 0.0416,0.570716 0.0416,0.856109 0,4.53007 -1.37528,7.16957 -4.29266,7.16957" />
    <path
       style="font-style:normal;font-variant:normal;font-weight:normal;font-stretch:normal;font-size:medium;line-height:125%;font-family:'Lobster Two';text-align:start;letter-spacing:0px;word-spacing:0px;writing-mode:lr-tb;text-anchor:start;fill:#ffba0f;fill-opacity:1"
       inkscape:connector-curvature="0"
       id="path40"
       d="m 111.38623,44.598553 0,17.83461 4.16765,0 0,-13.126256 c 0.95852,-0.856109 2.16722,-1.783461 3.41749,-1.783461 1.20856,0 1.37529,0.891765 2.33396,0.891765 0.66682,0 1.91713,-0.42804 1.91713,-1.854844 0,-1.177088 -0.87524,-2.140167 -2.75065,-2.140167 -2.3756,0 -3.6258,1.498138 -4.91779,3.174629 l 0,-2.99572 -4.16765,0" />
    <path
       style="font-style:normal;font-variant:normal;font-weight:normal;font-stretch:normal;font-size:medium;line-height:125%;font-family:'Lobster Two';text-align:start;letter-spacing:0px;word-spacing:0px;writing-mode:lr-tb;text-anchor:start;fill:#ffba0f;fill-opacity:1"
       inkscape:connector-curvature="0"
       id="path42"
       d="m 135.31069,44.598553 0,11.449766 c 0,2.461216 -1.6671,3.888041 -3.25077,3.888041 -1.45872,0 -2.50055,-0.891766 -2.50055,-3.210286 l 0,-12.127451 -4.16764,0 0,12.520162 c 0,4.066324 2.62563,5.528805 5.87639,5.528805 1.45873,0 2.95903,-0.642057 4.04257,-2.033197 l 0,2.247207 c -2.70893,0.963079 -5.45964,2.53253 -5.45964,4.993746 0,1.926158 1.6671,3.495609 4.41774,3.495609 2.79236,0 5.20962,-1.640834 5.20962,-6.099522 l 0,-20.653088 -4.16765,0 M 133.477,69.49618 c -1.25035,0 -2.0005,-0.713412 -2.0005,-1.783461 0,-1.319784 1.08361,-2.354176 3.83419,-3.424295 l 0,2.496873 c 0,1.676491 -0.33342,2.710883 -1.83376,2.710883" />
    <path
       style="font-style:normal;font-variant:normal;font-weight:normal;font-stretch:normal;font-size:medium;line-height:125%;font-family:'Lobster Two';text-align:start;letter-spacing:0px;word-spacing:0px;writing-mode:lr-tb;text-anchor:start;fill:#019d59;fill-opacity:1"
       inkscape:connector-curvature="0"
       id="path44"
       d="m 142.87913,60.257618 c 0,1.319784 1.20856,2.354176 2.75065,2.354176 1.50037,0 2.79236,-1.034392 2.79236,-2.354176 0,-1.284129 -1.29199,-2.389904 -2.79236,-2.389904 -1.54202,0 -2.75065,1.105775 -2.75065,2.389904" />
    <path
       style="font-style:normal;font-variant:normal;font-weight:normal;font-stretch:normal;font-size:medium;line-height:125%;font-family:'Lobster Two';text-align:start;letter-spacing:0px;word-spacing:0px;writing-mode:lr-tb;text-anchor:start;fill:#019d59;fill-opacity:1"
       inkscape:connector-curvature="0"
       id="path46"
       d="m 159.55226,44.419922 c -6.25144,0 -8.12656,5.742816 -8.12656,9.916458 0,6.135178 4.08428,8.310863 7.79324,8.310863 4.50104,0 7.1266,-3.531335 7.1266,-9.38126 0,-0.499374 -0.0417,-0.998735 -0.0417,-1.462481 2.54227,-0.356699 5.29291,-1.391098 6.37652,-2.924893 l -0.62513,-0.963078 c -1.37529,1.212745 -3.4175,2.140167 -5.70974,2.140167 l -0.25006,0 c -0.5418,-3.174629 -2.16722,-5.635845 -6.54325,-5.635845 m 0.41677,15.516576 c -1.87541,0 -4.04257,-1.105775 -4.04257,-5.742815 0,-3.495609 1.25035,-7.811808 4.70942,-7.811808 1.25035,0 2.33382,0.570716 3.00074,2.21155 -1.08361,0.03567 -1.6671,0.42804 -1.6671,1.533794 0,1.212745 0.66683,1.712148 2.25052,1.783461 0.0417,0.285358 0.0417,0.570716 0.0417,0.856109 0,4.53007 -1.37529,7.16957 -4.29266,7.16957" />
    <path
       style="font-style:normal;font-variant:normal;font-weight:normal;font-stretch:normal;font-size:medium;line-height:125%;font-family:'Lobster Two';text-align:start;letter-spacing:0px;word-spacing:0px;writing-mode:lr-tb;text-anchor:start;fill:#019d59;fill-opacity:1"
       inkscape:connector-curvature="0"
       id="path48"
       d="m 169.42506,44.598553 0,17.83461 4.16765,0 0,-13.126256 c 0.95853,-0.856109 2.16723,-1.783461 3.4175,-1.783461 1.20856,0 1.37529,0.891765 2.33382,0.891765 0.66683,0 1.91712,-0.42804 1.91712,-1.854844 0,-1.177088 -0.87523,-2.140167 -2.75064,-2.140167 -2.3756,0 -3.62595,1.498138 -4.9178,3.174629 l 0,-2.99572 -4.16765,0" />
    <path
       style="font-style:normal;font-variant:normal;font-weight:normal;font-stretch:normal;font-size:medium;line-height:125%;font-family:'Lobster Two';text-align:start;letter-spacing:0px;word-spacing:0px;writing-mode:lr-tb;text-anchor:start;fill:#019d59;fill-opacity:1"
       inkscape:connector-curvature="0"
       id="path50"
       d="m 194.63207,44.598553 0,1.712148 C 193.8402,44.84822 192.08981,44.4202 190.7561,44.4202 c -5.66802,0 -7.91868,5.457492 -7.91868,9.702378 0,5.742816 3.75089,7.811808 7.1266,7.811808 2.00049,0 3.62588,-0.891765 4.66777,-2.140167 l 0,3.067589 c -2.70899,0.963079 -5.45964,2.53253 -5.45964,4.993747 0,1.926157 1.6671,3.495608 4.41775,3.495608 2.79236,0 5.20961,-1.640834 5.20961,-6.099521 l 0,-20.652394 -4.16765,0 m -3.62581,14.624811 c -2.41725,0 -3.79253,-1.533794 -3.79253,-5.350452 0,-3.174629 1.37528,-7.490689 4.95944,-7.490689 1.25035,0 2.08386,0.784726 2.4589,1.533794 l 0,7.597729 c 0,2.104511 -1.95884,3.709688 -3.62581,3.709688 m 1.79205,10.273024 c -1.25034,0 -2.00049,-0.713412 -2.00049,-1.783461 0,-1.319784 1.08361,-2.354176 3.83425,-3.424295 l 0,2.496874 c 0,1.67649 -0.33341,2.710882 -1.83376,2.710882" />
  </g>
</svg>
